<svg width="127" height="18" viewBox="0 0 127 18" fill="none" xmlns="http://www.w3.org/2000/svg">
<g clip-path="url(#clip0_52_21638)">
<path d="M59.3417 16.2744C57.3468 16.2744 55.7259 15.6444 54.4857 14.3845C53.2454 13.1245 52.622 11.4512 52.622 9.35786V8.9707C52.622 7.57296 52.8911 6.31959 53.4357 5.21714C53.9738 4.1147 54.735 3.25506 55.7128 2.64478C56.6905 2.02793 57.7799 1.72607 58.9807 1.72607C60.8903 1.72607 62.3668 2.33636 63.4102 3.55692C64.4536 4.77748 64.972 6.50333 64.972 8.73446V10.0075H55.8047C55.8965 11.169 56.2837 12.0812 56.9662 12.7571C57.6421 13.433 58.5017 13.7676 59.5254 13.7676C60.9691 13.7676 62.1437 13.1836 63.0558 12.0155L64.7554 13.6364C64.1911 14.4763 63.443 15.126 62.5046 15.5854C61.5662 16.0447 60.5097 16.2744 59.3417 16.2744ZM58.9676 4.25251C58.1014 4.25251 57.4058 4.55436 56.8743 5.15808C56.3428 5.7618 56.0015 6.60832 55.8572 7.68451H61.8615V7.44828C61.7893 6.39177 61.5137 5.59775 61.0216 5.05309C60.5229 4.52812 59.8404 4.25251 58.9676 4.25251Z" fill="#878787"/>
<path d="M74.7627 4.86251C74.3493 4.79033 73.9228 4.75752 73.4766 4.75752C72.0329 4.75752 71.0617 5.30874 70.5564 6.41774V16.0182H67.4066V1.98172H70.4186L70.4973 3.55008C71.2585 2.32952 72.3151 1.71924 73.6603 1.71924C74.1065 1.71924 74.4806 1.7783 74.7759 1.90298L74.7627 4.86251Z" fill="#878787"/>
<path d="M84.8815 16.0182C84.7437 15.7491 84.6191 15.316 84.5206 14.7057C83.5166 15.7491 82.2895 16.2741 80.8393 16.2741C79.4284 16.2741 78.28 15.8738 77.3876 15.0667C76.4951 14.2595 76.0489 13.2686 76.0489 12.0809C76.0489 10.5847 76.6067 9.43634 77.7157 8.63575C78.8247 7.83517 80.4127 7.43488 82.4798 7.43488H84.4091V6.51618C84.4091 5.78778 84.2056 5.21031 83.7988 4.77064C83.3919 4.33098 82.7751 4.11443 81.9417 4.11443C81.2264 4.11443 80.6358 4.2916 80.1765 4.65252C79.7171 5.01344 79.4875 5.46623 79.4875 6.02401H76.3376C76.3376 5.25624 76.5935 4.5344 77.1054 3.86506C77.6172 3.19572 78.3063 2.67075 79.1856 2.29015C80.0649 1.90954 81.0427 1.71924 82.1254 1.71924C83.766 1.71924 85.0784 2.13265 86.0562 2.95949C87.0339 3.78632 87.5327 4.94782 87.5589 6.44399V12.7699C87.5589 14.0298 87.7361 15.0404 88.0904 15.7951V16.0182H84.8815ZM81.4233 13.7477C82.0467 13.7477 82.6307 13.5967 83.1819 13.2949C83.7332 12.993 84.1466 12.5862 84.4222 12.0743V9.42977H82.7226C81.5545 9.42977 80.6752 9.6332 80.0912 10.0401C79.5006 10.4469 79.2118 11.0244 79.2118 11.7659C79.2118 12.3696 79.4153 12.8552 79.8156 13.2096C80.2093 13.5705 80.7474 13.7477 81.4233 13.7477Z" fill="#878787"/>
<path d="M98.7343 12.2054C98.7343 11.641 98.5046 11.2145 98.0387 10.9192C97.5728 10.6239 96.8116 10.3679 95.7354 10.1383C94.6657 9.91516 93.7667 9.62642 93.0514 9.28519C91.4765 8.52398 90.6891 7.42154 90.6891 5.97786C90.6891 4.77043 91.2009 3.75329 92.218 2.94615C93.2352 2.13244 94.5345 1.72559 96.1094 1.72559C97.7893 1.72559 99.1411 2.139 100.178 2.9724C101.208 3.79923 101.727 4.88198 101.727 6.20098H98.5768C98.5768 5.59726 98.3537 5.09197 97.9009 4.69168C97.4481 4.29139 96.8575 4.08796 96.1094 4.08796C95.4204 4.08796 94.856 4.24545 94.4164 4.567C93.9767 4.88855 93.7601 5.31509 93.7601 5.85318C93.7601 6.33878 93.9636 6.71283 94.3704 6.98188C94.7773 7.25092 95.5975 7.51997 96.8378 7.79558C98.0715 8.07119 99.0427 8.39274 99.7514 8.76678C100.454 9.14083 100.979 9.59361 101.32 10.1251C101.661 10.6501 101.832 11.2932 101.832 12.0479C101.832 13.3078 101.307 14.3315 100.263 15.1124C99.2199 15.8933 97.8484 16.287 96.1488 16.287C95.0004 16.287 93.9767 16.077 93.0777 15.6636C92.1787 15.2502 91.4765 14.6793 90.9778 13.9509C90.4791 13.2225 90.2231 12.4416 90.2231 11.6016H93.2811C93.327 12.3432 93.6027 12.9206 94.1211 13.3209C94.6395 13.7212 95.3285 13.9246 96.1816 13.9246C97.0084 13.9246 97.6449 13.7671 98.078 13.4522C98.5177 13.1306 98.7343 12.7172 98.7343 12.2054Z" fill="#878787"/>
<path d="M110.756 16.2739C108.761 16.2739 107.14 15.6439 105.9 14.384C104.66 13.1241 104.036 11.4507 104.036 9.35738V8.97021C104.036 7.57247 104.306 6.3191 104.85 5.21665C105.388 4.11421 106.15 3.25457 107.127 2.64429C108.105 2.02745 109.194 1.72559 110.395 1.72559C112.305 1.72559 113.781 2.33587 114.825 3.55643C115.868 4.77699 116.386 6.50284 116.386 8.73397V10.007H107.219C107.311 11.1685 107.698 12.0807 108.381 12.7566C109.057 13.4325 109.916 13.7671 110.94 13.7671C112.384 13.7671 113.558 13.1831 114.47 12.015L116.17 13.6359C115.606 14.4759 114.858 15.1255 113.919 15.5849C112.981 16.0442 111.924 16.2739 110.756 16.2739ZM110.382 4.25202C109.516 4.25202 108.82 4.55388 108.289 5.15759C107.757 5.76131 107.416 6.60783 107.272 7.68403H113.276V7.44779C113.204 6.39128 112.928 5.59726 112.436 5.0526C111.937 4.52763 111.255 4.25202 110.382 4.25202Z" fill="#878787"/>
<path d="M126.177 4.86251C125.764 4.79033 125.337 4.75752 124.891 4.75752C123.447 4.75752 122.476 5.30874 121.971 6.41774V16.0182H118.821V1.98172H121.833L121.912 3.55008C122.673 2.32952 123.73 1.71924 125.075 1.71924C125.521 1.71924 125.895 1.7783 126.19 1.90298L126.177 4.86251Z" fill="#878787"/>
<path d="M21.9373 18H1.36497C0.308458 18 -0.347757 16.4973 0.196902 15.3226L6.89687 0.853081C7.13967 0.321546 7.58589 0 8.06493 0H21.9439V18H21.9373Z" fill="#EC2C40"/>
<path d="M21.9373 18H1.36497C0.308458 18 -0.347757 16.4973 0.196902 15.3226L6.89687 0.853081C7.13967 0.321546 7.58589 0 8.06493 0H21.9439V18H21.9373Z" fill="#878787"/>
<path d="M24.2997 0H44.8786C45.9351 0 46.5913 1.50273 46.0467 2.67736L39.3467 17.1469C39.1039 17.6785 38.6577 18 38.1786 18H24.2997V0Z" fill="#00A9E5"/>
<path d="M24.2997 0H44.8786C45.9351 0 46.5913 1.50273 46.0467 2.67736L39.3467 17.1469C39.1039 17.6785 38.6577 18 38.1786 18H24.2997V0Z" fill="#878787"/>
</g>
<defs>
<clipPath id="clip0_52_21638">
<rect width="126.19" height="18" fill="white"/>
</clipPath>
</defs>
</svg>
